<svg viewBox="0 0 14 14" xmlns="http://www.w3.org/2000/svg"><path d="m10.40000005 10.40000005-.4 1.80000003-1.7714286-.57142858-1.22857145 1.37142859-1.22857145-1.3714286-1.7714286.57142859-.4-1.80000003-1.80000003-.4.57142858-1.7714286-1.37142859-1.22857145 1.3714286-1.22857145-.57142859-1.7714286 1.80000003-.4.4-1.80000003 1.7714286.57142858 1.22857145-1.37142859 1.22857145 1.3714286 1.7714286-.57142859.4 1.80000003 1.80000003.4-.57142858 1.7714286 1.37142859 1.22857145-1.3714286 1.22857145.57142859 1.7714286z" fill="#f44336"/><path d="m5.37142855 9.08571432 2.77142861-4.45714293.4857143.2857143-2.77142863 4.45714291zm.2-4.94285722c-.51428572 0-1.14285716.31428572-1.14285716 1.14285716v.28571429c0 .51428572.31428572 1.14285716 1.14285716 1.14285716.6 0 1.14285716-.4 1.14285716-1.14285716v-.28571429c0-.71428572-.4857143-1.14285716-1.14285716-1.14285716zm.51428572 1.42857145c0 .37142858-.2.57142858-.51428572.57142858-.25714286 0-.51428572-.17142857-.51428572-.57142858v-.28571429c0-.4.25714286-.6.51428572-.6.4 0 .51428572.37142857.51428572.6zm2.34285718 4.28571435c.51428572 0 1.14285716-.31428572 1.14285716-1.14285716v-.28571429c0-.51428572-.31428572-1.14285716-1.14285716-1.14285716-.6 0-1.14285716.4-1.14285716 1.14285716v.28571429c0 .71428572.4857143 1.14285716 1.14285716 1.14285716zm-.51428572-1.42857145c0-.37142858.2-.57142858.51428572-.57142858.25714286 0 .51428572.17142857.51428572.57142858v.28571429c0 .4-.25714286.6-.51428572.6-.4 0-.51428572-.37142857-.51428572-.6z" fill="#fff"/></svg>